<?xml version="1.0" encoding="UTF-8" standalone="no"?>
<svg
   viewBox="0 0 14 14"
   xmlns="http://www.w3.org/2000/svg"
   xmlns:svg="http://www.w3.org/2000/svg">
  <path
     fill="currentColor"
     style="fill-opacity:0.5;stroke-width:0.913084;-inkscape-stroke:none;paint-order:stroke markers fill"
     d="M 3.562,7.002 A 4.03,4.03 0 0 1 7.607,2.953 L 7.606,0.608 C 4.09,0.61 1.216,3.487 1.216,7.003 Z"
     id="path2" />
  <path
     fill="currentColor"
     id="path4"
     style="fill-opacity:1;stroke-width:0.913084;-inkscape-stroke:none;paint-order:stroke markers fill"
     d="M 7.6074219,0.60742188 V 2.9511719 A 4.03,4.03 0 0 1 11.654297,6.9980469 4.03,4.03 0 0 1 7.6074219,11.044922 4.03,4.03 0 0 1 4.0292969,8.875 L 5.7558594,8.5273438 1.8710938,4.1230469 0,9.6894531 1.6699219,9.3515625 c 0.9416545,2.3600815 3.2512269,4.0390625 5.9375,4.0390625 C 11.123422,13.390625 14,10.517 14,7 14,3.483 11.123422,0.60742187 7.6074219,0.60742188 Z" />
</svg>
