<?xml version="1.0" encoding="UTF-8" standalone="no"?>
<svg
   aria-hidden="true"
   data-prefix="faga"
   data-icon="HealingBonus"
   class="svg-inline--fa fa-HealingBonus fa-w-16"
   viewBox="0 0 14 14"
   version="1.1"
   id="svg4"
   sodipodi:docname="FIGHT_PROP_HEAL_ADD.svg"
   inkscape:version="1.1 (c68e22c387, 2021-05-23)"
   xmlns:inkscape="http://www.inkscape.org/namespaces/inkscape"
   xmlns:sodipodi="http://sodipodi.sourceforge.net/DTD/sodipodi-0.dtd"
   xmlns="http://www.w3.org/2000/svg"
   xmlns:svg="http://www.w3.org/2000/svg">
  <defs
     id="defs8" />
  <sodipodi:namedview
     id="namedview6"
     pagecolor="#505050"
     bordercolor="#ffffff"
     borderopacity="1"
     inkscape:pageshadow="0"
     inkscape:pageopacity="0"
     inkscape:pagecheckerboard="1"
     showgrid="false"
     inkscape:zoom="46"
     inkscape:cx="-1.1630435"
     inkscape:cy="6.0978261"
     inkscape:window-width="2560"
     inkscape:window-height="1377"
     inkscape:window-x="-10"
     inkscape:window-y="-10"
     inkscape:window-maximized="1"
     inkscape:current-layer="svg4" />
  <path
     fill="currentColor"
     d="M14 4.765v4.47a.589.589 0 0 1-.588.589H9.824v3.588a.589.589 0 0 1-.589.588h-4.47a.589.589 0 0 1-.589-.588V9.824H.588A.589.589 0 0 1 0 9.235v-4.47a.589.589 0 0 1 .588-.589h3.588V.588A.589.589 0 0 1 4.765 0h4.47a.589.589 0 0 1 .589.588v3.588h3.588a.589.589 0 0 1 .588.589Z"
     id="path2" />
</svg>
